<svg width="20" height="20" viewBox="0 0 20 20" fill="none" xmlns="http://www.w3.org/2000/svg">
<g id="search">
<path id="Icon" d="M16.6363 17.697C16.9292 17.9899 17.4041 17.9899 17.697 17.697C17.9899 17.4041 17.9899 16.9292 17.697 16.6363L16.6363 17.697ZM13.9167 8.83334C13.9167 11.6408 11.6408 13.9167 8.83334 13.9167V15.4167C12.4692 15.4167 15.4167 12.4692 15.4167 8.83334H13.9167ZM8.83334 13.9167C6.02589 13.9167 3.75 11.6408 3.75 8.83334H2.25C2.25 12.4692 5.19746 15.4167 8.83334 15.4167V13.9167ZM3.75 8.83334C3.75 6.02589 6.02589 3.75 8.83334 3.75V2.25C5.19746 2.25 2.25 5.19746 2.25 8.83334H3.75ZM8.83334 3.75C11.6408 3.75 13.9167 6.02589 13.9167 8.83334H15.4167C15.4167 5.19746 12.4692 2.25 8.83334 2.25V3.75ZM12.4697 13.5303L16.6363 17.697L17.697 16.6363L13.5303 12.4697L12.4697 13.5303Z" fill="#807D7E"/>
</g>
</svg>
