<svg width="106" height="18" viewBox="0 0 106 18" fill="none" xmlns="http://www.w3.org/2000/svg">
<g id="Group 1617">
<path id="Star" fill-rule="evenodd" clip-rule="evenodd" d="M9.025 13.7063L3.675 17.05L5.0125 11.0312L1 7.01875L6.35 6.35L9.025 1L11.7 6.35L17.05 7.01875L13.0375 11.0312L14.375 17.05L9.025 13.7063Z" fill="#FFD706" stroke="#ECC600" stroke-linecap="round" stroke-linejoin="round"/>
<path id="Star_2" fill-rule="evenodd" clip-rule="evenodd" d="M31.025 13.7063L25.675 17.05L27.0125 11.0312L23 7.01875L28.35 6.35L31.025 1L33.7 6.35L39.05 7.01875L35.0375 11.0312L36.375 17.05L31.025 13.7063Z" fill="#FFD706" stroke="#ECC600" stroke-linecap="round" stroke-linejoin="round"/>
<path id="Star_3" fill-rule="evenodd" clip-rule="evenodd" d="M75.025 13.7063L69.675 17.05L71.0125 11.0312L67 7.01875L72.35 6.35L75.025 1L77.7 6.35L83.05 7.01875L79.0375 11.0312L80.375 17.05L75.025 13.7063Z" fill="#FFD706" stroke="#ECC600" stroke-linecap="round" stroke-linejoin="round"/>
<path id="Star_4" fill-rule="evenodd" clip-rule="evenodd" d="M97.025 13.7063L91.675 17.05L93.0125 11.0312L89 7.01875L94.35 6.35L97.025 1L99.7 6.35L105.05 7.01875L101.037 11.0312L102.375 17.05L97.025 13.7063Z" fill="#FFD706" stroke="#ECC600" stroke-linecap="round" stroke-linejoin="round"/>
<path id="Star_5" fill-rule="evenodd" clip-rule="evenodd" d="M53.025 13.7063L47.675 17.05L49.0125 11.0312L45 7.01875L50.35 6.35L53.025 1L55.7 6.35L61.05 7.01875L57.0375 11.0312L58.375 17.05L53.025 13.7063Z" fill="#FFD706" stroke="#ECC600" stroke-linecap="round" stroke-linejoin="round"/>
</g>
</svg>
