<svg width="647" height="138" viewBox="0 0 647 138" fill="none" xmlns="http://www.w3.org/2000/svg">
<path d="M2.064 64.16H12.08V61.6H2.064V64.16ZM2.064 73.12H11.76V70.56H2.064V73.12ZM0.56 61.6V84H3.28V61.6H0.56ZM16.5833 79.456C16.5833 78.9227 16.7113 78.464 16.9673 78.08C17.2233 77.696 17.6073 77.3973 18.1193 77.184C18.6526 76.9707 19.3353 76.864 20.1673 76.864C21.0633 76.864 21.9059 76.9813 22.6953 77.216C23.4846 77.4293 24.2526 77.792 24.9993 78.304V76.8C24.8499 76.608 24.5619 76.3627 24.1353 76.064C23.7086 75.744 23.1326 75.4667 22.4073 75.232C21.7033 74.976 20.8179 74.848 19.7513 74.848C17.9379 74.848 16.5193 75.2853 15.4953 76.16C14.4926 77.0133 13.9913 78.1547 13.9913 79.584C13.9913 80.5867 14.2259 81.44 14.6953 82.144C15.1646 82.848 15.7833 83.392 16.5513 83.776C17.3406 84.1387 18.1833 84.32 19.0793 84.32C19.8899 84.32 20.7006 84.1707 21.5113 83.872C22.3433 83.5733 23.0366 83.1147 23.5913 82.496C24.1673 81.8773 24.4553 81.0987 24.4553 80.16L23.9433 78.24C23.9433 79.008 23.7513 79.6907 23.3673 80.288C23.0046 80.864 22.5033 81.312 21.8633 81.632C21.2446 81.952 20.5406 82.112 19.7513 82.112C19.1326 82.112 18.5779 82.016 18.0873 81.824C17.6179 81.6107 17.2446 81.3013 16.9673 80.896C16.7113 80.4907 16.5833 80.0107 16.5833 79.456ZM16.1993 72.672C16.4339 72.5013 16.7539 72.2987 17.1593 72.064C17.5646 71.8293 18.0553 71.6267 18.6313 71.456C19.2286 71.2853 19.8899 71.2 20.6153 71.2C21.0633 71.2 21.4899 71.2427 21.8953 71.328C22.3006 71.4133 22.6526 71.552 22.9513 71.744C23.2713 71.936 23.5166 72.2027 23.6873 72.544C23.8579 72.864 23.9433 73.28 23.9433 73.792V84H26.5033V73.44C26.5033 72.48 26.2579 71.6693 25.7673 71.008C25.2979 70.3467 24.6259 69.8453 23.7513 69.504C22.8979 69.1413 21.8953 68.96 20.7433 68.96C19.3779 68.96 18.2046 69.1627 17.2233 69.568C16.2633 69.9733 15.5059 70.3787 14.9513 70.784L16.1993 72.672ZM30.8375 59.04V84H33.3975V59.04H30.8375ZM38.2125 59.04V84H40.7725V59.04H38.2125ZM55.3413 61.6V84H58.0613V61.6H55.3413ZM72.465 75.04V84H75.025V74.72C75.025 72.9493 74.5663 71.552 73.649 70.528C72.753 69.4827 71.5263 68.96 69.969 68.96C69.009 68.96 68.1557 69.1733 67.409 69.6C66.6837 70.0267 66.0757 70.688 65.585 71.584V69.28H63.025V84H65.585V75.04C65.585 74.3147 65.7343 73.6747 66.033 73.12C66.353 72.5653 66.7903 72.1387 67.345 71.84C67.921 71.52 68.5823 71.36 69.329 71.36C70.353 71.36 71.1317 71.6693 71.665 72.288C72.1983 72.9067 72.465 73.824 72.465 75.04ZM89.5913 61.6V84H101.111V81.44H92.3113V61.6H89.5913ZM102.558 76.64C102.558 78.112 102.888 79.4347 103.549 80.608C104.232 81.76 105.15 82.6667 106.302 83.328C107.454 83.9893 108.744 84.32 110.174 84.32C111.624 84.32 112.915 83.9893 114.046 83.328C115.198 82.6667 116.104 81.76 116.766 80.608C117.448 79.4347 117.79 78.112 117.79 76.64C117.79 75.1467 117.448 73.824 116.766 72.672C116.104 71.52 115.198 70.6133 114.046 69.952C112.915 69.2907 111.624 68.96 110.174 68.96C108.744 68.96 107.454 69.2907 106.302 69.952C105.15 70.6133 104.232 71.52 103.549 72.672C102.888 73.824 102.558 75.1467 102.558 76.64ZM105.15 76.64C105.15 75.616 105.363 74.7093 105.79 73.92C106.238 73.1093 106.835 72.48 107.582 72.032C108.35 71.584 109.214 71.36 110.174 71.36C111.134 71.36 111.987 71.584 112.734 72.032C113.502 72.48 114.099 73.1093 114.526 73.92C114.974 74.7093 115.198 75.616 115.198 76.64C115.198 77.664 114.974 78.5707 114.526 79.36C114.099 80.1493 113.502 80.7787 112.734 81.248C111.987 81.696 111.134 81.92 110.174 81.92C109.214 81.92 108.35 81.696 107.582 81.248C106.835 80.7787 106.238 80.1493 105.79 79.36C105.363 78.5707 105.15 77.664 105.15 76.64ZM118.438 69.28L125.478 85.12L132.518 69.28H129.638L125.478 79.68L121.318 69.28H118.438ZM140.159 84.32C141.737 84.32 143.103 84.0107 144.255 83.392C145.428 82.752 146.399 81.8133 147.167 80.576L145.087 79.264C144.553 80.16 143.903 80.832 143.135 81.28C142.367 81.7067 141.481 81.92 140.479 81.92C139.476 81.92 138.623 81.7067 137.919 81.28C137.215 80.8533 136.681 80.2347 136.319 79.424C135.956 78.6133 135.775 77.632 135.775 76.48C135.796 75.3493 135.988 74.4 136.351 73.632C136.735 72.8427 137.268 72.2453 137.951 71.84C138.655 71.4133 139.497 71.2 140.479 71.2C141.311 71.2 142.036 71.3813 142.655 71.744C143.273 72.1067 143.753 72.608 144.095 73.248C144.457 73.888 144.639 74.6453 144.639 75.52C144.639 75.6693 144.607 75.8613 144.543 76.096C144.479 76.3093 144.415 76.4693 144.351 76.576L145.375 75.104H134.815V77.28H147.391C147.391 77.2373 147.391 77.1413 147.391 76.992C147.412 76.8213 147.423 76.6613 147.423 76.512C147.423 74.9547 147.145 73.6107 146.591 72.48C146.036 71.3493 145.236 70.4853 144.191 69.888C143.167 69.2693 141.929 68.96 140.479 68.96C139.028 68.96 137.748 69.28 136.639 69.92C135.551 70.56 134.697 71.456 134.079 72.608C133.481 73.76 133.183 75.104 133.183 76.64C133.183 78.1547 133.471 79.488 134.047 80.64C134.644 81.792 135.465 82.6987 136.511 83.36C137.577 84 138.793 84.32 140.159 84.32ZM180.621 78.08L173.965 60.48L167.437 78.08L161.485 61.6H158.445L167.245 85.12L173.965 67.712L180.685 85.12L189.485 61.6H186.445L180.621 78.08ZM192.213 63.2C192.213 63.6693 192.383 64.0853 192.725 64.448C193.087 64.7893 193.503 64.96 193.973 64.96C194.463 64.96 194.879 64.7893 195.221 64.448C195.562 64.0853 195.733 63.6693 195.733 63.2C195.733 62.7093 195.562 62.2933 195.221 61.952C194.879 61.6107 194.463 61.44 193.973 61.44C193.503 61.44 193.087 61.6107 192.725 61.952C192.383 62.2933 192.213 62.7093 192.213 63.2ZM192.693 69.28V84H195.253V69.28H192.693ZM198.285 69.28V71.68H205.645V69.28H198.285ZM200.685 64.16V84H203.245V64.16H200.685ZM210.773 59.04H208.213V84H210.773V59.04ZM217.653 75.04V84H220.213V74.72C220.213 73.44 219.999 72.3733 219.573 71.52C219.167 70.6667 218.581 70.0267 217.813 69.6C217.066 69.1733 216.181 68.96 215.157 68.96C214.133 68.96 213.226 69.2267 212.437 69.76C211.669 70.2933 211.061 71.0187 210.613 71.936C210.165 72.832 209.941 73.8667 209.941 75.04H210.773C210.773 74.336 210.922 73.7067 211.221 73.152C211.541 72.5973 211.978 72.16 212.533 71.84C213.109 71.52 213.77 71.36 214.517 71.36C215.562 71.36 216.341 71.6693 216.853 72.288C217.386 72.9067 217.653 73.824 217.653 75.04ZM236.379 72.8C236.379 71.1147 236.741 69.6107 237.467 68.288C238.213 66.9653 239.227 65.92 240.507 65.152C241.787 64.384 243.237 64 244.859 64C246.501 64 247.952 64.384 249.211 65.152C250.491 65.92 251.493 66.9653 252.219 68.288C252.965 69.6107 253.339 71.1147 253.339 72.8C253.339 74.4853 252.965 75.9893 252.219 77.312C251.493 78.6347 250.491 79.68 249.211 80.448C247.952 81.216 246.501 81.6 244.859 81.6C243.237 81.6 241.787 81.216 240.507 80.448C239.227 79.68 238.213 78.6347 237.467 77.312C236.741 75.9893 236.379 74.4853 236.379 72.8ZM233.499 72.8C233.499 74.4213 233.776 75.936 234.331 77.344C234.907 78.752 235.707 79.9787 236.731 81.024C237.755 82.048 238.96 82.8587 240.347 83.456C241.733 84.032 243.237 84.32 244.859 84.32C246.501 84.32 248.005 84.032 249.371 83.456C250.757 82.8587 251.963 82.048 252.987 81.024C254.011 79.9787 254.8 78.752 255.355 77.344C255.931 75.936 256.219 74.4213 256.219 72.8C256.219 71.1573 255.931 69.6427 255.355 68.256C254.8 66.848 254.011 65.632 252.987 64.608C251.963 63.5627 250.757 62.752 249.371 62.176C248.005 61.5787 246.501 61.28 244.859 61.28C243.237 61.28 241.733 61.5787 240.347 62.176C238.96 62.752 237.755 63.5627 236.731 64.608C235.707 65.632 234.907 66.848 234.331 68.256C233.776 69.6427 233.499 71.1573 233.499 72.8ZM262.46 78.24V69.28H259.9V78.56C259.9 80.3093 260.359 81.7067 261.276 82.752C262.193 83.7973 263.42 84.32 264.956 84.32C265.937 84.32 266.791 84.1067 267.516 83.68C268.241 83.232 268.849 82.5707 269.34 81.696V84H271.9V69.28H269.34V78.24C269.34 78.9653 269.18 79.6053 268.86 80.16C268.561 80.7147 268.124 81.152 267.548 81.472C266.993 81.7707 266.343 81.92 265.596 81.92C264.572 81.92 263.793 81.6 263.26 80.96C262.727 80.32 262.46 79.4133 262.46 78.24ZM279.273 69.28H276.713V84H279.273V69.28ZM283.72 72.096L285.129 69.984C284.745 69.5787 284.318 69.312 283.849 69.184C283.401 69.0347 282.91 68.96 282.377 68.96C281.694 68.96 281.022 69.2267 280.361 69.76C279.699 70.2933 279.155 71.0187 278.729 71.936C278.323 72.832 278.121 73.8667 278.121 75.04H279.273C279.273 74.336 279.337 73.7067 279.465 73.152C279.614 72.5973 279.87 72.16 280.233 71.84C280.595 71.52 281.097 71.36 281.737 71.36C282.163 71.36 282.515 71.424 282.793 71.552C283.07 71.6587 283.379 71.84 283.72 72.096ZM308.395 3.9375C316.77 3.9375 323.52 15.6562 328.645 39.0938C329.332 43.9688 329.801 48.9688 330.051 54.0938C330.051 69.2812 326.02 79.5312 317.957 84.8438C314.77 86.0312 312.301 86.625 310.551 86.625C303.926 86.625 299.52 81.3125 297.332 70.6875C296.27 66.625 295.738 61.9062 295.738 56.5312V55.0312C295.738 40.4688 298.238 24.9375 303.238 8.4375V7.5L302.863 7.21875C303.551 5.03125 305.395 3.9375 308.395 3.9375ZM308.77 9.46875C303.832 23.8438 301.363 39.0312 301.363 55.0312V55.875C301.363 69.6875 303.645 77.8438 308.207 80.3438L310.551 81H311.488C316.988 81 320.895 76.0625 323.207 66.1875C323.832 63.6875 324.145 60.7812 324.145 57.4688V52.0312C324.145 36.9062 320.207 23.4375 312.332 11.625C310.832 10.1875 309.645 9.46875 308.77 9.46875ZM352.176 50.8125C358.488 51.3125 361.051 58.9062 359.863 73.5938L359.113 81.9375C358.738 84.1875 357.645 85.25 355.832 85.125C354.145 85 353.395 83.875 353.582 81.75L354.238 72.6562C355.113 61.9688 354.176 56.5312 351.426 56.3438C348.488 56.0938 346.363 61.6562 345.051 73.0312L345.426 83.1562C345.301 84.4688 344.238 85.1562 342.238 85.2188C339.926 85.0312 339.051 81.7188 339.613 75.2812L337.363 53.8125C337.488 52.375 338.645 51.5938 340.832 51.4688C342.145 51.5312 342.926 52.9375 343.176 55.6875L343.551 55.7812C346.363 52.2812 349.238 50.625 352.176 50.8125ZM371.113 0.9375C372.051 1 372.926 1.78125 373.738 3.28125C373.301 3.96875 373.02 5.21875 372.895 7.03125L372.801 8.25L373.363 45.1875C373.051 61.9375 373.238 74.2188 373.926 82.0312L374.113 82.7812C373.551 83.9688 372.645 84.5312 371.395 84.4688C368.582 84.2812 367.457 80.4062 368.02 72.8438C367.645 68.7188 367.457 49.75 367.457 15.9375C367.082 13.875 366.988 11.1562 367.176 7.78125V7.40625C367.488 2.96875 368.801 0.8125 371.113 0.9375ZM383.676 51.1875C385.613 51.1875 386.582 54.125 386.582 60V65.7188C386.582 73.1562 388.176 76.875 391.363 76.875H391.645C393.832 74.6875 394.926 71.75 394.926 68.0625V57.0938C394.926 54.8438 396.301 53.2812 399.051 52.4062H400.176C401.551 53.4688 402.238 54.3438 402.238 55.0312L400.551 68.625L400.832 92.1562V96.6562C400.832 119.906 396.801 133.281 388.738 136.781L386.395 137.438C381.77 137.438 377.832 134.094 374.582 127.406L371.301 117.375C371.863 115.75 372.738 114.938 373.926 114.938H374.77C375.957 114.938 377.645 118.688 379.832 126.188C382.02 129.875 384.082 131.719 386.02 131.719C391.332 131.719 394.488 120.219 395.488 97.2188V91.3125L395.113 81.5625L390.988 82.5C385.176 82.5 381.832 76.7812 380.957 65.3438L380.676 53.25C381.238 51.875 382.238 51.1875 383.676 51.1875ZM434.676 0.9375C435.488 1.0625 436.488 1.875 437.676 3.375L440.488 3.09375C448.051 3.09375 453.488 7.46875 456.801 16.2188C457.613 18.9688 458.02 21.4688 458.02 23.7188V24.5625L458.207 24.8438L458.02 25.2188V26.3438C458.02 31.9062 456.145 37.4375 452.395 42.9375C458.52 46.8125 461.582 52.4062 461.582 59.7188V61.7812C461.582 69.5938 458.801 76.9688 453.238 83.9062C450.801 86.2812 448.238 87.4688 445.551 87.4688L441.238 86.625H440.957L439.926 87.1875H438.801C437.113 87.1875 436.02 85.1875 435.52 81.1875C433.957 73.25 433.176 64.3125 433.176 54.375V49.0312L431.77 45.75V45.5625L433.176 42.9375V34.875C433.176 21.875 432.707 11.375 431.77 3.375C432.207 1.75 433.176 0.9375 434.676 0.9375ZM437.957 8.90625C438.52 17.5938 438.801 27.0312 438.801 37.2188V43.5H441.238C446.113 43.5 449.738 39.0625 452.113 30.1875L452.395 26.625V23.3438C452.395 16.2812 449.613 11.5625 444.051 9.1875L440.488 8.53125H439.363L437.957 8.90625ZM439.645 49.0312H438.801V54.0938C438.801 71.5938 439.988 80.3438 442.363 80.3438C443.113 81.3438 443.988 81.8438 444.988 81.8438H446.207C449.957 81.8438 453.113 76.4375 455.676 65.625L455.957 60.2812C455.957 53.1562 453.613 49.0312 448.926 47.9062H446.395L439.645 49.0312ZM467.863 46.3125C469.551 46.3125 470.832 48.3438 471.707 52.4062H471.988C474.363 49.5938 476.926 48.1875 479.676 48.1875C484.176 49 486.426 50.4062 486.426 52.4062C485.863 54.1562 484.895 55.0312 483.52 55.0312L479.957 53.9062H479.02C475.332 54.5938 473.488 62.1875 473.488 76.6875V81.0938C473.113 83.0312 472.238 84 470.863 84C468.863 84 467.863 82.8125 467.863 80.4375V69.5625C467.863 61.5625 466.863 54.5625 464.863 48.5625C465.363 47.0625 466.363 46.3125 467.863 46.3125ZM501.051 51.6562C506.426 53.5938 509.27 59.5312 509.582 69.4688V70.0312C509.332 78.3438 507.176 83.4375 503.113 85.3125L500.488 85.6875C493.801 84.0625 490.457 79.0312 490.457 70.5938V70.3125C490.457 61.1875 493.395 55.0938 499.27 52.0312L501.051 51.6562ZM495.988 69.4688V71.5312C496.676 77.4062 498.488 80.3438 501.426 80.3438C503.113 78.4688 503.957 74.8438 503.957 69.4688V68.9062C503.645 62.2188 502.582 58.5625 500.77 57.9375C497.582 59.375 495.988 63.2188 495.988 69.4688ZM516.895 47.3438C519.02 47.3438 520.301 50.4375 520.738 56.625C522.988 64.5625 524.301 68.5312 524.676 68.5312H524.957C525.52 60.9062 526.488 57.0938 527.863 57.0938H529.082C530.832 57.0938 533.77 60.9062 537.895 68.5312H538.176V68.25C538.738 54.0625 540.426 46.9688 543.238 46.9688H543.801C545.613 47.3438 546.52 48.125 546.52 49.3125C544.707 54.5 543.801 60.5 543.801 67.3125L544.176 81.4688C543.676 83.2812 542.645 84.1875 541.082 84.1875C539.27 84.1875 535.926 78.5625 531.051 67.3125H530.488C529.488 80.125 527.551 86.5312 524.676 86.5312C522.738 86.5312 521.551 83.375 521.113 77.0625C517.676 65.5 515.395 56.5625 514.27 50.25C514.27 48.9375 515.145 47.9688 516.895 47.3438ZM566.77 50.8125C573.082 51.3125 575.645 58.9062 574.457 73.5938L573.707 81.9375C573.332 84.1875 572.238 85.25 570.426 85.125C568.738 85 567.988 83.875 568.176 81.75L568.832 72.6562C569.707 61.9688 568.77 56.5312 566.02 56.3438C563.082 56.0938 560.957 61.6562 559.645 73.0312L560.02 83.1562C559.895 84.4688 558.832 85.1562 556.832 85.2188C554.52 85.0312 553.645 81.7188 554.207 75.2812L551.957 53.8125C552.082 52.375 553.238 51.5938 555.426 51.4688C556.738 51.5312 557.52 52.9375 557.77 55.6875L558.145 55.7812C560.957 52.2812 563.832 50.625 566.77 50.8125ZM586.176 36.375C587.801 36.375 588.801 37.4375 589.176 39.5625C589.176 40.5625 588.488 41.5312 587.113 42.4688H586.176C584.426 42.4688 583.551 41.4062 583.551 39.2812C584.051 37.3438 584.926 36.375 586.176 36.375ZM586.832 49.0312C588.957 49.3438 589.551 52.5 588.613 58.5C587.863 63.4375 587.738 71.7188 588.238 83.3438C587.301 85.1562 586.082 85.9375 584.582 85.6875C582.832 85.4375 582.113 82.3438 582.426 76.4062C582.301 66.0312 582.832 57.3438 584.02 50.3438C584.145 49.4062 585.082 48.9688 586.832 49.0312ZM604.457 50.5312C607.957 50.5312 610.332 53.6875 611.582 60C609.957 67.0625 606.613 70.5938 601.551 70.5938H601.176V70.875C602.176 76.5625 604.832 79.4062 609.145 79.4062C612.457 79.4062 615.145 76.5625 617.207 70.875L619.27 70.0312C620.645 70.0312 621.52 71.0938 621.895 73.2188C621.895 77.0938 618.863 80.75 612.801 84.1875L608.301 85.0312C602.926 85.0312 598.895 81.1875 596.207 73.5C595.457 70.4375 595.082 67.9062 595.082 65.9062V64.6875C595.082 58.3125 597.738 53.6875 603.051 50.8125L604.457 50.5312ZM600.988 62.3438V62.5312L603.051 64.6875C603.988 64.6875 604.863 63.4062 605.676 60.8438V59.3438C605.363 57.4062 604.957 56.4375 604.457 56.4375H603.895C602.957 56.4375 601.988 58.4062 600.988 62.3438ZM637.926 48.375C641.176 48.375 643.145 49.75 643.832 52.5C643.832 53.8125 642.957 54.625 641.207 54.9375H640.363C639.551 54.375 638.832 54.0938 638.207 54.0938H637.363C633.238 55.8438 631.176 58.4688 631.176 61.9688V62.8125C631.488 64.875 632.457 65.9062 634.082 65.9062H634.926L641.395 64.6875C644.582 65.0625 646.176 66.625 646.176 69.375C646.176 73.4375 643.707 77.7812 638.77 82.4062C636.457 84.1562 634.113 85.0312 631.738 85.0312C627.426 84.0938 625.27 82.3125 625.27 79.6875C625.895 78.125 626.957 77.3438 628.457 77.3438L631.363 79.4062H632.863C637.426 77.6562 639.707 74.8125 639.707 70.875L639.332 70.5C637.77 71.0625 636.02 71.3438 634.082 71.3438C629.457 71.3438 626.613 68.3438 625.551 62.3438C625.551 56.9062 628.582 52.4688 634.645 49.0312L637.926 48.375Z" fill="white"/>
</svg>
